# xmcd CD database file
#
# Track frame offsets:
#	150
#	15176
#	26444
#	41405
#	62525
#	80217
#	97137
#	113014
#	124573
#	138717
#	153949
#	166553
#	182120
#	195203
#	214563
#	242254
#	254503
#
# Disc length: 3584 seconds
#
# Revision: 0
# Processed by: cddbd v1.5.2PL0 Copyright (c) Steve Scherf et al.
# Submitted via: CDex 1.70beta2
#
DISCID=cd0dfe11
DTITLE=Country Rebels - 17 nej písnicek Michala Tucného
DYEAR=2006
DGENRE=Country
TTITLE0=Poslední kovboj
TTITLE1=Cesty toulavy
TTITLE2=Tam u nebeskejch bran
TTITLE3=Vsichni jsou uz v Mexiku
TTITLE4=Kosmickej vandr
TTITLE5=Poveste ho vejs
TTITLE6=El Paso
TTITLE7=Sest bílejch koní
TTITLE8=Blízko Little Big Hornu
TTITLE9=Chtel bych byt medvídkem
TTITLE10=Snídane v tráve
TTITLE11=Pane muj
TTITLE12=Slámu v botách nosím
TTITLE13=Medicinman
TTITLE14=Jak chcete zít bez koní
TTITLE15=Cizinec
TTITLE16=Bajecná zenská
EXTD=YEAR: 2006
EXTT0=
EXTT1=
EXTT2=
EXTT3=
EXTT4=
EXTT5=
EXTT6=
EXTT7=
EXTT8=
EXTT9=
EXTT10=
EXTT11=
EXTT12=
EXTT13=
EXTT14=
EXTT15=
EXTT16=
PLAYORDER=
